PathFileType	4	(X/Y/Z)	RBDS020\RBDS020runT35.trc
DataRate	CameraRate	NumFrames	NumMarkers	Units	OrigDataRate	OrigDataStartFrame	OrigNumFrames
150.000000	150.000000	6	33	mm	150.000000	0	4500
Frame#	Time	L.ASIS			L.Heel.Bottom			L.Heel.Lateral			L.Heel.Top			L.Iliac.Crest			L.MT1			L.MT5			L.PSIS			L.Shank.Bottom.Lateral			L.Shank.Bottom.Medial			L.Shank.Top.Lateral			L.Shank.Top.Medial			L.Thigh.Bottom.Lateral			L.Thigh.Bottom.Medial			L.Thigh.Top.Lateral			L.Thigh.Top.Medial			R.ASIS			R.ASY			R.Heel.Bottom			R.Heel.Lateral			R.Heel.Top			R.Iliac.Crest			R.MT1			R.MT5			R.PSIS			R.Shank.Bottom.Lateral			R.Shank.Bottom.Medial			R.Shank.Top.Lateral			R.Shank.Top.Medial			R.Thigh.Bottom.Lateral			R.Thigh.Bottom.Medial			R.Thigh.Top.Lateral			R.Thigh.Top.Medial			
		X1	Y1	Z1	X2	Y2	Z2	X3	Y3	Z3	X4	Y4	Z4	X5	Y5	Z5	X6	Y6	Z6	X7	Y7	Z7	X8	Y8	Z8	X9	Y9	Z9	X10	Y10	Z10	X11	Y11	Z11	X12	Y12	Z12	X13	Y13	Z13	X14	Y14	Z14	X15	Y15	Z15	X16	Y16	Z16	X17	Y17	Z17	X18	Y18	Z18	X19	Y19	Z19	X20	Y20	Z20	X21	Y21	Z21	X22	Y22	Z22	X23	Y23	Z23	X24	Y24	Z24	X25	Y25	Z25	X26	Y26	Z26	X27	Y27	Z27	X28	Y28	Z28	X29	Y29	Z29	X30	Y30	Z30	X31	Y31	Z31	X32	Y32	Z32	X33	Y33	Z33	

1	0	2302.837863912488	1010.391835727706	890.081237078474	2293.838189422429	25.29935435096663	971.4907135332937	2314.080504761146	46.63561902490076	926.1788642961998	2302.636261582298	72.25367528089745	970.3963414262564	2240.450584883657	1052.614049183626	854.8349817570785	2514.766919731415	52.93333745342166	983.4087237713086	2469.343386811847	40.89804689253003	879.8606628645433	2145.992790982775	1038.159867649717	961.3396932455629	2367.730613382406	157.4029854687502	896.9111262962241	2325.180142982852	163.9529329454426	931.9298230510533	2361.005828516843	234.8953254974623	875.5979741598883	2320.899978537002	242.2348562498098	911.3684450273556	2320.443559840679	667.8181354858806	827.7151530194396	2262.468252165763	643.4269476206736	864.4267233613956	2270.889161948592	765.7106958963553	816.566943579837	2218.315043078309	743.7559871470164	855.3808808673103	2312.786130538206	980.184386160968	1118.452341449916	1778.19288921291	289.7918181546734	1086.835740764863	1731.706722457231	472.9879425798683	1034.71321745702	1742.52420005555	455.9431663168335	1084.560914256718	1773.409228370695	465.0184787665557	1041.660776893476	2272.793208413371	1039.137433081934	1148.262030309997	1744.085578077651	258.9474578374989	1040.899549453587	1722.377407449889	301.136445784561	1140.168253871032	2153.896165792314	1032.022472480237	1059.657049123289	1877.742164829533	423.9180814396689	1120.691136762659	1877.001711886	460.5517546960891	1085.043190292325	1958.757441697044	442.5771622477052	1136.174575611089	1953.611205182902	481.5945116190677	1100.577892066967	2193.378695162368	600.3889665162826	1159.90556658896	2144.164508383069	600.9734371298269	1108.22939002872	2183.706435322911	710.3384106643634	1168.361274515436	2137.014782440367	710.2761214141759	1118.201763443906	
2	0.006666666666666667	2299.857422870105	1006.982927804256	889.5101602320954	2271.732715845444	26.37685455942612	971.4011970010887	2292.189430113507	47.81906450797428	926.1737904408881	2281.011126136747	73.38254083121099	970.4959794324471	2236.884356419372	1047.219941697122	854.6879028777954	2493.108072921935	52.32562563678301	983.1571804897062	2447.539521434588	40.83057760376468	879.8849449943899	2142.295334064313	1032.695061322324	962.4750956141921	2351.874230408505	158.6770593731332	897.020497757271	2309.379016491214	167.5321419226308	931.3630510608966	2349.262215905141	236.1301009082807	875.6062934047352	2309.458819686125	245.5724439444068	910.8820093001262	2320.980192609776	666.4747178046538	826.9649842700816	2262.961769743611	641.1107679398567	862.9225802807615	2270.462596553858	763.8352193020503	816.0546418262004	2217.678789554156	740.9742328105006	854.1951540177079	2310.709202677159	975.9665039227693	1118.612457541782	1792.223046152201	291.119349186736	1086.524204658859	1745.939565661386	475.1707405387821	1036.291296025238	1757.176225671024	457.7398946024587	1085.940649152599	1787.724549787541	466.9923318219185	1042.618101513735	2270.043818232902	1032.731954332856	1149.229806597034	1757.234209778868	260.8457355063402	1040.83675312188	1736.776325952806	302.4224212789668	1140.777974458611	2150.664850633618	1025.8260810908	1060.190775116502	1892.694116705706	423.5582125231874	1120.931157553829	1892.459470886769	460.7013597832599	1085.76688367946	1974.167741099608	440.6079018399381	1136.246439227135	1969.414110294999	480.2726340732528	1101.291307937478	2203.292703808873	595.0338914875357	1159.967478760644	2153.402785979139	593.4806519588564	1109.048522179708	2190.008904502252	704.4987764298622	1167.895605851414	2142.696889096397	702.4940309060623	1118.578112964213	
3	0.01333333333333333	2296.95115550513	1003.682142372141	888.9370135256775	2249.525935720851	27.4087962025072	971.3036215678717	2270.18670034313	48.9498295131706	926.1584421345412	2259.26046909209	74.46189109544656	970.5810221204572	2233.331569727141	1041.987921767436	854.5781119112137	2471.31677681717	51.72953612341714	982.8909436094724	2425.605194430149	40.75997583429172	879.8838084323131	2138.708687090487	1027.430440867888	963.5865017108418	2335.723454006639	159.8029364415705	897.1140361715798	2293.320546947406	170.9087008665316	930.8214312296578	2337.146435347515	237.1821300039022	875.6072684164883	2297.663120619018	248.6822529924976	910.4115127732833	2321.080482166055	664.9911267647882	826.2550039384282	2263.006823484989	638.7944393374419	861.5369627482967	2269.775678743704	761.9116965998539	815.5777577888662	2216.790760824274	738.2721025895147	853.1142732473475	2308.621346107232	971.9322715986765	1118.788579753527	1806.586384383851	292.1277127427859	1086.16647905618	1760.164962843792	476.9312197462492	1038.01884591524	1771.883661743566	459.0999171220519	1087.443575979156	1802.040152746371	468.6127787604498	1043.705677031948	2267.183633440505	1026.541065330625	1150.187072823964	1770.763178959075	262.3973600778427	1040.715369062561	1751.55661161617	303.2238610107158	1141.338661906985	2147.496203045566	1019.855939666497	1060.721549457249	1907.761050987161	423.022807659386	1121.182465250786	1907.957345023232	460.6810558707701	1086.522476889592	1989.661705465116	438.6038029324999	1136.308044932399	1985.228087828658	478.911198329068	1102.008776309382	2213.260721136798	589.9739484673804	1159.970520366459	2162.729097653331	586.2859901268571	1109.813537760547	2196.342866703908	698.9132115936756	1167.42764756391	2148.441901766404	694.9573651813453	1118.943314996276	
4	0.02	2294.180575099286	1000.577769961606	888.3600937059772	2227.121184791925	28.32680887096909	971.1891178618931	2247.962739670719	49.95738064440337	926.1210281788324	2237.260549634532	75.42262913707491	970.6357362466905	2229.814473020564	1037.068627018121	854.5315348331483	2449.271848501603	51.16130402988922	982.5996822876112	2403.422582579948	40.68284948586685	879.8399969774705	2135.331126059255	1022.550031657506	964.6445831782662	2319.005749296902	160.6327536195548	897.1814977317105	2276.759947232344	173.887062586279	930.3269912082405	2324.316758613982	237.8725443716451	875.5995831743732	2285.182579141551	251.3461950422816	909.9705058334338	2320.348035036778	663.2318665197663	825.6290340801185	2262.190685261085	636.4663581431269	860.3759055577752	2268.588774544987	759.889707814557	815.172240554341	2215.413782095305	735.7115560070666	852.232846964453	2306.514711731048	968.2465055321311	1118.985788610848	1821.563942829936	292.5279992580934	1085.719670077241	1774.356834281562	477.8996684683622	1040.033888554543	1786.678921401039	459.6400883557077	1089.181652277588	1816.338952375105	469.5720912323174	1045.044709088012	2264.130354501658	1020.765721101066	1151.119740243364	1784.992363067161	263.2854038390061	1040.481073279923	1767.036354331905	303.1052728388702	1141.803804639971	2144.44601529907	1014.320666540931	1061.240703670968	1923.037456617632	422.1593801143686	1121.459434886275	1923.51967170893	460.3468933916494	1087.343611201241	2005.313120690706	436.539873768994	1136.353024382565	2001.059305452059	477.4830899908972	1102.737946610026	2223.336599895886	585.4808002356417	1159.858558863984	2172.225706567498	579.6593759197319	1110.474759675555	2202.737446773899	693.8103415211554	1166.952715789085	2154.307496414321	687.8860029197615	1119.28711881775	
5	0.02666666666666667	2291.597810510707	997.7378091198112	887.783982749399	2204.4597250976	29.07466270182036	971.0544466388428	2225.448325615899	50.78614358336046	926.0554541026244	2214.931206612275	76.20863049498386	970.6522228141794	2226.380755413014	1032.591861945569	854.5607846944707	2426.896967350026	50.6359850920059	982.2803058788712	2380.918921240536	40.59800931859657	879.7458208461848	2132.248836971236	1018.216767078068	965.6138218689629	2301.522275221259	161.0617926315011	897.2210847996489	2259.515953312774	176.3226946413195	929.9012440214854	2310.514571908323	238.0746886466767	875.5899233418679	2271.764601380934	253.4039755501614	909.5758948264115	2318.47613749238	661.1079690368164	825.1236505123729	2260.189958196789	634.1307232232693	859.5130813580417	2266.718138036626	757.7442588842084	814.8677021973006	2213.360764690051	733.3525096698944	851.6183482937645	2304.396003642999	965.047767491354	1119.201627799766	1837.354558291628	292.0879648290303	1085.155149162973	1788.480935322853	477.7710830828277	1042.430553579652	1801.56910630963	459.0503196676259	1091.230019980318	1830.591889319302	469.6146870004399	1046.721456520484	2260.850590668502	1015.586403262663	1152.012744127976	1800.155594516557	263.2512516847991	1040.093250276096	1783.439921050436	301.7257680699732	1142.135770823203	2141.568003975059	1009.408471533823	1061.732549962573	1938.577247582419	420.8472156352784	1121.77338752873	1939.143372681148	459.5815423294969	1088.25357509074	2021.15906677744	434.4006883773672	1136.377031746692	2016.889378071427	475.9671972065651	1103.482052124791	2233.547871738162	581.7821083097645	1159.589292839135	2181.943055029813	573.8293974334966	1110.992644922612	2209.207035420026	689.3823240620002	1166.468475359158	2160.330481066099	681.4681922930652	1119.602677774466	
6	0.03333333333333333	2289.243922766683	995.2072050248809	887.2199430923451	2181.518927549342	29.61844142444259	970.9021542677691	2202.614087803533	51.40486828542106	925.9613944494553	2192.237068297876	76.78673204702916	970.6304496751316	2223.107775638515	1028.662156916544	854.6627018954408	2404.16050766661	50.16650639364976	981.9381269063355	2358.065989843366	40.50692895743661	879.6047829020265	2129.53156088491	1014.564826502621	966.4534204611622	2283.158276352765	161.0455308598671	897.2393861856719	2241.479019003113	178.14166039567	929.5630205436775	2295.578535533748	237.7335467674651	875.5928689935616	2257.247445677101	254.7744798037698	909.2470623467515	2315.270789582007	658.5924611236575	824.7665385546466	2256.794295281802	631.8155347744747	858.9821756579212	2264.050732106678	755.4847871251254	814.6859321328639	2210.508347874937	731.2551517211914	851.3039050952647	2302.289654405789	962.443604748321	1119.424580879369	1854.06670074652	290.6441211958577	1084.461569256156	1802.502311437547	476.3145998467932	1045.246813150732	1816.539590612462	457.105947426696	1093.616610820131	1844.763961179743	468.5446412469829	1048.776518337787	2257.372369796693	1011.157316821234	1152.850172472459	1816.392000593321	262.1067353009005	1039.528761291888	1800.887700883484	298.8606646950646	1142.308821042598	2138.912709673205	1005.279651106266	1062.174167752393	1954.391564393226	419.0019733466662	1122.1312654742	1954.798355706402	458.2970646460266	1089.262225880764	2037.197119548026	432.1802348409138	1136.377871292153	2032.674988344147	474.3468612059708	1104.238835745683	2243.891501323206	579.0523245763995	1159.138653169865	2191.894228298327	568.9744361940593	1111.341106099985	2215.749770141906	685.7773490995592	1165.976174518785	2166.523453015453	675.8541299426239	1119.888138206224	
